<?xml version="1.0" standalone="no"?><!DOCTYPE svg PUBLIC "-//W3C//DTD SVG 1.1//EN" "http://www.w3.org/Graphics/SVG/1.1/DTD/svg11.dtd"><svg class="icon" width="128px" height="128.00px" viewBox="0 0 1024 1024" version="1.1" xmlns="http://www.w3.org/2000/svg"><path d="M1008.125713 528.846422c0-27.933656-10.829918-54.217048-30.428685-73.945703L571.378779 46.108586c-39.306278-39.543899-107.869241-39.543899-147.195656-0.043296l-147.282247 147.869254c-40.564868 40.760201-40.608163 107.130197-0.043296 147.933694l406.252802 408.727694c19.663208 19.772957 45.795569 30.624018 73.662771 30.624018 27.802763 0 53.934117-10.851062 73.555036-30.601867l38.30746-38.459498 28.323315 28.497504c13.564583 13.630029 13.564583 35.702682 2.018779 47.488121l-104.004866 89.377026c-13.500143 13.673325-35.507349 13.608885-49.050787 0L479.678898 609.693227l0 0-3.472702-3.493847c-40.608163-40.73805-106.630788-40.824641-147.195656-0.086591l-10.440258 10.482547-66.609632-66.913707c-6.771216-6.793367-15.669952-10.200622-24.546538-10.200622-8.877592 0-17.754178 3.407256-24.547545 10.200622 0 0 0 0.044302-0.044302 0.044302l-24.459947 24.589833 0 0L31.037783 722.162867C-9.527085 762.923068-9.570381 829.27192 30.994487 870.096561l122.670263 123.321709c20.249207 20.357949 46.945417 30.580723 73.57618 30.580723 26.651908 0 53.304822-10.179478 73.641627-30.537427l147.261103-147.869254c0.021144-0.043296 0.021144-0.108742 0.06444-0.152038l24.416651-24.503242c6.532587-6.554738 10.179478-15.365877 10.179478-24.656287 0-9.223956-3.646891-18.122693-10.136183-24.633129L367.599924 666.015645l10.418107-10.482547c13.521287-13.65218 35.5295-13.586734 49.04978 0.043296l0-0.043296 3.472702 3.493847 0 0.022151 266.285482 267.890436c20.532138 20.597585 47.553568 30.776056 74.314218 30.776056 26.044764 0 51.828747-9.680069 70.884811-28.931466l103.983721-89.399177c40.608163-40.760201 40.629308-107.130197 0.043296-147.976989l-28.323315-28.432058 59.902856-60.119333C997.2525 583.020175 1008.125713 556.780078 1008.125713 528.846422L1008.125713 528.846422 1008.125713 528.846422 1008.125713 528.846422 1008.125713 528.846422zM325.407951 870.248599c-0.043296 0.022151-0.043296 0.086591-0.065447 0.129887l-73.489589 73.771514c-13.542431 13.521287-35.637235 13.564583-49.137378 0L80.08857 820.829296c-13.522294-13.586734-13.522294-35.702682 0-49.332711l73.641627-73.9014 0 0 73.662771-73.923551 171.677754 172.611125L325.407951 870.248599 325.407951 870.248599 325.407951 870.248599 325.407951 870.248599 325.407951 870.248599zM928.537499 553.502709 781.276396 701.32766c-13.087325 13.173916-35.941311 13.173916-49.028636-0.044302L325.972806 292.599966c-13.543438-13.630029-13.543438-35.746984 0-49.332711L473.255054 95.398001c6.554738-6.575882 15.258142-10.200622 24.525393-10.200622 9.267252 0 18.013951 3.62474 24.547545 10.179478l406.274954 408.793141c6.511443 6.554738 10.114031 15.301437 10.114031 24.611984C938.716977 538.113674 935.113381 546.86138 928.537499 553.502709L928.537499 553.502709 928.537499 553.502709 928.537499 553.502709 928.537499 553.502709zM523.087173 149.158936c-13.3914-13.804218-35.398607-13.9774-49.072938-0.520553-13.694469 13.500143-13.911953 35.572795-0.520553 49.311567l349.78036 358.679097c6.771216 6.945405 15.778695 10.461402 24.786173 10.461402 8.789994 0 17.536693-3.29952 24.286765-9.961994 13.71662-13.477992 13.890809-35.5295 0.499409-49.311567L523.087173 149.158936 523.087173 149.158936 523.087173 149.158936 523.087173 149.158936 523.087173 149.158936z" fill="#1296db" /></svg>