<?xml version="1.0" standalone="no"?><!DOCTYPE svg PUBLIC "-//W3C//DTD SVG 1.1//EN" "http://www.w3.org/Graphics/SVG/1.1/DTD/svg11.dtd"><svg class="icon" width="128px" height="128.00px" viewBox="0 0 1024 1024" version="1.1" xmlns="http://www.w3.org/2000/svg"><path d="M464.133556 164.113523s11.966611-22.223706 0-23.933222c-11.966611-1.709516-22.223706-35.899833-17.095159-56.414024 0 0 3.419032-13.676127 1.709516-20.51419 0 0 10.257095-51.285476 47.866444-44.447413 0 0 61.542571 5.128548 54.704508 56.414024 0 0 5.128548 25.642738-6.838064 34.190317 0 0-17.095159 29.06177 0 35.899833 0 0 49.57596 20.51419 64.961603 30.771286 0 0 22.223706 1.709516 25.642738 11.966611 0 0 59.833055 78.63773 63.252087 90.60434l13.676127 17.095159s0 11.966611-5.128548 22.223706c-5.128548 10.257095-1.709516 8.547579-17.095159 20.51419s-63.252087 34.190317-68.380634 41.028381c0 0 3.419032 11.966611-1.709516 15.385643 0 0-13.676127 13.676127-6.838063 22.223706s10.257095 5.128548 5.128547 17.095158c-1.709516 10.257095-6.838063 10.257095-3.419031 18.804675 1.709516 6.838063 1.709516 25.642738 1.709515 25.642738l-6.838063-1.709516s3.419032 41.028381-30.771285 87.185309l-27.352254 54.704507s-1.709516 44.447412 6.838063 49.57596c0 0 49.57596 11.966611 54.704508 37.609349 0 0 27.352254 23.933222 37.609349 27.352254 0 0 47.866444-13.676127 47.866444 15.385643 0 0-11.966611 30.771285-17.095159 35.899833 0 0-11.966611 3.419032-6.838063 23.933222 0 0-3.419032 37.609349-22.223706 51.285475 0 0-30.771285 18.804674-30.771286-11.966611 0 0-1.709516-47.866444 1.709516-58.123539 0 0-17.095159-5.128548-10.257095-13.676127 0 0-10.257095-20.51419-32.480802-23.933222 0 0-44.447412-23.933222-47.866444-25.642738l-20.51419-8.547579s-8.547579 18.804674-6.838063 29.06177c0 0 1.709516 68.380634-15.385643 88.894824 0 0-49.57596 94.023372-47.866444 102.570952l-8.54758 1.709516s6.838063 80.347245-11.966611 82.056761c0 0-112.828047-35.899833-102.570951-58.123539 0 0 20.51419-23.933222 35.899833-20.51419 0 0 29.06177-5.128548 32.480801-13.676127 0 0 3.419032-18.804674 11.966611-17.095159 0 0 22.223706-49.57596 25.642738-73.509182 0 0 11.966611-75.218698 20.51419-85.475793 0 0-8.547579-114.537563 11.966611-128.213689 0 0-39.318865-124.794658-18.804674-165.823039l-6.838063-1.709516 8.547579-23.933222-5.128548-6.838063s-8.547579-15.385643-6.838063-20.51419c1.709516-5.128548-1.709516-25.642738-1.709516-25.642738l-6.838063 1.709516s5.128548 5.128548-3.419032 8.547579c0 0-37.609349 17.095159-41.028381-8.547579 0 0-10.257095-20.51419-6.838063-25.642738 3.419032-5.128548 5.128548-6.838063 0-10.257095-5.128548-1.709516-6.838063-18.804674-1.709516-22.223707 3.419032-5.128548 11.966611-100.861436 25.642738-114.537562 0 0 59.833055-41.028381 71.799666-46.156928z" fill="#1296db" /></svg>