<?xml version="1.0" standalone="no"?><!DOCTYPE svg PUBLIC "-//W3C//DTD SVG 1.1//EN" "http://www.w3.org/Graphics/SVG/1.1/DTD/svg11.dtd"><svg t="1557315161795" class="icon" style="" viewBox="0 0 1024 1024" version="1.1" xmlns="http://www.w3.org/2000/svg" p-id="3673" xmlns:xlink="http://www.w3.org/1999/xlink" width="45" height="45"><defs><style type="text/css"></style></defs><path d="M899.677868 819.214569H124.418736L80.536144 468.15383h848.396785l-29.255061 351.060739z" fill="#FFCB57" p-id="3674"></path><path d="M899.677868 848.469631H109.791205a29.255062 29.255062 0 0 1-29.255061-26.329556l-58.510123-570.4737A29.255062 29.255062 0 0 1 51.281082 219.485807h804.514193a29.255062 29.255062 0 0 1 0 58.510123H83.7542l52.512836 511.963577H873.348312l68.164294-655.020828-171.142111-78.988666A29.255062 29.255062 0 1 1 794.944747 2.705801l190.1579 87.765184a29.255062 29.255062 0 0 1 16.821661 29.255062l-73.137654 702.121478A29.255062 29.255062 0 0 1 899.677868 848.469631z" fill="#472D22" p-id="3675"></path><path d="M285.321575 1024a117.020246 117.020246 0 1 1 117.020246-117.020246 117.020246 117.020246 0 0 1-117.020246 117.020246z m0-175.530369a58.510123 58.510123 0 1 0 58.510123 58.510123 58.510123 58.510123 0 0 0-58.510123-58.510123zM724.147498 1024a117.020246 117.020246 0 1 1 117.020246-117.020246 117.020246 117.020246 0 0 1-117.020246 117.020246z m0-175.530369a58.510123 58.510123 0 1 0 58.510123 58.510123 58.510123 58.510123 0 0 0-58.510123-58.510123zM914.305398 497.408892H80.536144a29.255062 29.255062 0 0 1 0-58.510123h833.769254a29.255062 29.255062 0 0 1 0 58.510123z" fill="#472D22" p-id="3676"></path></svg>