<?xml version="1.0" standalone="no"?><!DOCTYPE svg PUBLIC "-//W3C//DTD SVG 1.1//EN" "http://www.w3.org/Graphics/SVG/1.1/DTD/svg11.dtd"><svg class="icon" width="128px" height="128.00px" viewBox="0 0 1024 1024" version="1.1" xmlns="http://www.w3.org/2000/svg"><path d="M237.056 470.528h-20.992c0-29.696 2.048-59.392 5.632-88.576 8.192-63.488 27.648-123.904 53.76-181.76 25.088-56.32 51.712-108.544 95.744-151.552 26.624 47.616 54.272 94.72 79.872 142.848 14.336 26.112 27.648 53.248 37.888 81.92 7.168 20.992 11.776 42.496 17.408 64 26.112 97.28 27.136 207.872-11.776 302.08-24.064 59.392-62.464 109.056-117.248 142.848l-0.512 0.512c-0.512-43.52-0.512-87.04-0.512-130.048 0-56.32 0.512-112.64 1.536-168.96 44.544-10.24 75.264-45.568 101.376-81.92 6.144-8.704-8.192-17.408-14.336-8.192-22.016 30.72-48.128 61.44-86.016 72.192 1.024-54.272 3.072-108.032 6.144-162.304 0.512-10.752-15.872-10.752-16.896 0-5.12 91.648-7.68 183.296-8.192 274.944h-1.536c-28.672-0.512-47.104-26.112-62.464-46.592-15.872-20.992-30.208-42.496-43.008-65.536-4.608-7.68-15.872-3.072-15.872 4.096zM779.264 898.048c-44.032 17.92-94.208 25.088-141.312 26.112-35.84 0.512-91.136-0.512-118.784-27.136-1.024-0.512-1.536-1.536-2.56-1.536 32.256-22.528 65.024-44.544 98.816-65.024 37.376 20.992 78.848 29.696 121.344 25.088 10.752-1.024 10.752-17.92 0-16.896-36.352 4.096-72.192-2.048-104.448-18.432 57.856-33.28 118.272-61.44 182.784-78.336 10.24-2.56 6.144-18.944-4.608-15.872-25.6 6.656-50.176 15.36-74.752 25.088 1.024-4.608 2.048-9.728 3.072-14.336 1.536-7.68 3.072-15.36 8.704-20.992 7.68-7.68-4.096-19.456-11.776-11.776-13.312 13.824-14.848 36.352-18.432 54.784-69.632 30.208-134.144 70.656-196.608 114.176 5.632-12.288 14.336-24.064 20.992-35.328 12.288-20.992 26.112-40.448 42.496-58.88 31.744-35.328 65.536-73.216 110.592-90.112 86.528-32.256 181.248-21.504 271.36-33.28-3.072 51.712-34.816 100.864-66.048 139.776-34.304 41.472-70.144 81.92-120.832 102.912z" fill="#3B9548" /><path d="M219.648 558.592c-2.048-29.184-3.584-58.368-3.584-88.064h20.992c0 1.536 0.512 2.56 1.024 4.096 16.384 28.672 34.816 55.808 55.808 81.408 16.896 20.48 36.864 38.4 64.512 38.912h1.536v63.488c0 38.4 0.512 77.312 0.512 115.712-36.864-23.552-67.072-55.296-95.232-88.576-29.696-34.304-41.984-82.432-45.568-126.976z" fill="#3B9548" /><path d="M222.208 381.952c-3.584 29.184-5.632 58.88-5.632 88.576 0 29.184 1.024 58.88 3.584 88.064 3.584 44.544 15.36 92.672 45.568 126.976 28.672 32.768 58.368 65.024 95.232 88.576-0.512-38.4-0.512-77.312-0.512-115.712V594.944h-1.536c-28.16-0.512-47.616-18.432-64.512-38.912-20.992-25.6-39.424-52.736-55.808-81.408-1.024-1.536-1.024-3.072-1.024-4.096 0-7.168 11.264-12.288 15.872-4.096 12.8 22.528 27.136 44.544 43.008 65.536 15.872 20.48 33.792 46.08 62.464 46.592h1.536c0.512-91.648 3.072-183.296 8.192-274.944 0.512-10.752 17.408-10.752 16.896 0-3.072 53.76-5.12 108.032-6.144 162.304 37.888-10.752 64-41.472 86.528-73.216 6.144-8.704 20.48-0.512 14.336 8.192-25.6 36.352-56.32 71.68-101.376 81.92-1.024 56.32-1.536 112.64-1.536 168.96 0 43.52 0.512 87.04 0.512 130.048 0 0 0.512 0 0.512-0.512 54.784-33.792 93.184-83.456 117.248-142.848 38.4-94.208 37.888-204.8 11.776-302.08-5.632-21.504-10.24-43.008-17.408-64-9.728-28.16-23.552-55.296-37.888-81.92-26.112-48.128-53.248-95.232-79.872-142.848-44.544 43.008-70.656 95.232-95.744 151.552-27.136 58.88-46.08 119.296-54.272 182.784zM736.256 855.04c-42.496 4.608-83.968-4.096-121.344-25.088-33.792 20.48-66.56 41.984-98.816 65.024 1.024 0.512 1.536 1.024 2.56 1.536 27.648 27.136 82.944 28.16 118.784 27.136 47.104-1.024 97.792-7.68 141.312-26.112 50.688-20.992 86.528-61.44 120.32-103.424 31.232-39.424 62.976-88.064 66.048-139.776-90.112 11.776-184.832 1.024-271.36 33.28-45.568 16.896-78.848 54.784-110.592 90.112-16.384 18.432-29.696 37.888-42.496 58.88-6.656 11.264-15.36 23.04-20.992 35.328 62.464-43.52 127.488-83.968 196.608-114.176 3.584-18.432 5.12-40.96 18.432-54.784 7.68-7.68 19.456 4.096 11.776 11.776-5.632 5.632-7.168 13.312-8.704 20.992-1.024 4.608-2.048 9.216-3.072 14.336 24.576-9.728 49.152-17.92 74.752-25.088 10.24-2.56 14.848 13.312 4.608 15.872-65.024 16.896-125.44 45.056-182.784 78.336 32.768 16.384 68.096 22.528 104.448 18.432 11.264-0.512 10.752 16.384 0.512 17.408z m-125.952-129.536c16.896-16.896 34.304-33.28 55.808-44.032 93.184-46.592 202.752-29.184 302.592-44.032 1.536-0.512 3.072 0 4.608 0.512 4.096 0 8.704 2.56 8.704 8.192 0.512 57.344-33.28 112.128-67.584 155.648-35.84 45.568-74.24 89.088-129.024 111.616-48.128 19.968-103.936 27.648-155.648 27.648-38.912 0-93.696-3.584-122.88-32.256-1.536-1.536-2.56-3.584-2.56-5.12-38.912 27.648-77.312 56.32-115.712 83.968-1.024 1.024-2.56 1.536-3.584 1.536-4.608 2.56-10.752 2.048-11.776-4.608-9.216-49.152-11.776-99.328-12.288-149.504 0-13.312 0-27.136-0.512-40.448-45.056-26.112-84.992-65.536-116.224-107.008-29.696-39.424-39.424-91.648-41.984-139.264-3.584-61.952-4.096-124.416 5.632-185.856 10.24-65.536 33.28-126.464 60.928-186.88 25.088-54.784 52.736-103.936 97.792-144.896 2.048-1.536 4.096-2.56 6.144-2.048 3.072-0.512 6.144 0.512 8.192 4.096 34.304 61.44 71.68 122.368 102.912 185.856 22.528 46.592 35.328 96.256 47.104 146.432 12.288 50.688 12.8 106.496 8.192 158.208-9.216 109.056-57.856 216.064-153.088 274.432-3.072 2.048-6.656 1.536-8.704-0.512 0 10.752 0 21.504 0.512 31.744 0.512 46.592 2.048 93.184 9.728 139.776 36.864-26.624 73.728-53.76 111.104-80.384 2.048-17.92 12.288-33.792 22.016-48.64 12.288-19.456 23.552-38.912 37.888-56.32 15.36-21.504 33.792-39.936 51.712-57.856z" fill="#056137" /></svg>