<?xml version="1.0" standalone="no"?><!DOCTYPE svg PUBLIC "-//W3C//DTD SVG 1.1//EN" "http://www.w3.org/Graphics/SVG/1.1/DTD/svg11.dtd"><svg class="icon" width="128px" height="127.50px" viewBox="0 0 1028 1024" version="1.1" xmlns="http://www.w3.org/2000/svg"><path d="M791.483362 658.218682L563.14977 429.163201H383.182763L252.23204 298.212478 72.265033 478.251674 154.055093 560.041734a137.158971 137.158971 0 0 0 43.313359 60.999648l221.69221 224.3632 27.72055 27.72055c42.302714 42.302714 81.717871 11.189284 102.07515-23.894536 38.693268 19.996334 82.006627-2.093479 97.382869-32.196264 49.016285 24.183292 91.89651-25.915827 88.359252-51.542897 53.203243-3.176313 92.979344-58.617413 56.884879-107.272753z" fill="#FFFFFF" /><path d="M489.083926 909.580543c-14.437786 0-33.640042-5.125414-53.708566-25.193937l-27.720549-27.72055-220.825943-223.785689a155.422771 155.422771 0 0 1-47.211562-64.970039L49.092385 478.251674 252.23204 275.11202l137.664293 137.664293h180.039197l234.325273 235.696863a78.252802 78.252802 0 0 1 10.034261 81.717871 91.752133 91.752133 0 0 1-64.248149 49.665985 82.078816 82.078816 0 0 1-32.051886 44.829327 74.643356 74.643356 0 0 1-64.970039 12.344307 95.000634 95.000634 0 0 1-45.695594 31.907508 85.977018 85.977018 0 0 1-51.903842 0.505323c-16.603454 22.811703-37.1773 37.105111-58.473035 40.137046a59.844625 59.844625 0 0 1-7.868593 0zM95.365491 478.251674l73.271766 73.199577 1.155023 4.042581A121.421784 121.421784 0 0 0 206.753013 607.686429l2.237857 1.876913 221.69221 224.3632 27.648361 27.648361c11.622418 11.622418 23.172647 16.820021 34.145365 15.376243 14.437786-1.876912 30.319351-15.304054 42.230525-36.094466l7.796404-13.499331 13.860275 7.218894a52.553542 52.553542 0 0 0 40.786747 3.104124 60.349947 60.349947 0 0 0 34.506309-28.225873l7.218894-14.437786 14.437786 7.218893a41.869581 41.869581 0 0 0 45.045894-4.186958c14.437786-10.467395 20.573846-25.193937 19.851956-30.463729l-2.382235-17.541911 17.686288-1.010645a59.628058 59.628058 0 0 0 50.532253-32.773775 45.623405 45.623405 0 0 0-5.919493-47.428128L556.36401 445.477899H376.397003L252.23204 321.385125z" fill="#2A5082" /><path d="M759.503665 314.599366s-66.630384 63.093127-81.79006 65.475361c-19.779767 3.031935-108.283398-38.621079-126.40282-43.313359s-196.71484 52.553542-209.997603 74.065844 39.487346 72.188932 90.380543 65.908495 126.330631-33.495664 148.348255-11.47804c35.661332 35.661332 139.757772 144.810998 188.918435 188.268734 41.21988 36.094466 111.5319-88.431442 129.290377-108.283398 0 0 32.701586-23.750159 55.729856-40.642369z" fill="#E9EAEB" /><path d="M785.780436 676.482481a41.147691 41.147691 0 0 1-27.648361-10.683961c-36.744166-32.41283-102.07515-99.404159-149.792034-148.276067-16.531265-16.964399-30.535918-31.329996-39.920479-40.642368s-56.668312 0.794078-84.966373 6.857948c-16.89221 3.609447-34.361932 7.218893-49.738174 9.312372-41.075502 5.341981-84.172295-20.501657-102.147339-48.366584-13.49933-20.93479-8.446105-35.516955-4.186958-42.374903 3.104124-4.981036 12.416496-20.140712 111.965034-53.564188 28.875573-9.745506 98.321325-31.907508 115.863236-27.576172a391.191822 391.191822 0 0 1 38.837645 14.437787c22.450758 9.095805 68.651674 27.937117 80.707226 28.081494 9.962073-4.331336 45.551216-34.722876 73.488333-61.144025l11.405851-10.82834L979.174585 506.621925l-15.592809 11.405851c-20.068523 14.437786-47.572506 34.650687-54.286077 39.559535-3.104124 3.753824-8.373916 11.333662-13.932464 19.346633-33.279098 47.861262-68.796052 94.928446-104.385196 99.259782a44.540571 44.540571 0 0 1-5.197603 0.288755zM550.444518 440.352485c17.108777 0 31.402185 3.537258 41.147691 13.210575s23.533592 23.894536 40.209235 40.931124c47.355939 48.510962 112.1816 114.996969 147.987311 146.615721a8.518294 8.518294 0 0 0 7.218893 2.454424c24.038914-2.887557 64.248149-60.710892 81.429115-85.399507a281.536835 281.536835 0 0 1 17.541911-23.822348l2.526612-2.237856 40.137047-28.875573-169.499613-166.034544c-40.209235 37.249489-66.774762 57.101445-79.407825 58.978358-15.087487 2.382235-42.519281-7.218893-98.465703-30.102785-13.788086-5.630737-28.009306-11.405851-33.567853-12.994008-24.038914 0-172.314981 48.583151-192.455693 66.197251a38.621079 38.621079 0 0 0 11.911174 17.686288c14.437786 13.860275 39.054212 26.565527 62.082481 23.533592 14.004653-1.804723 30.030596-5.197603 46.994995-8.879239A382.601339 382.601339 0 0 1 550.444518 440.352485zM461.522192 784.773098l23.122115-23.122115 76.014945 76.007727-23.129334 23.122115zM523.842897 717.485795l23.129333-23.129334 111.069891 111.07711-23.122115 23.122115zM592.89161 646.661234l23.122115-23.122115 130.373211 130.373211-23.122115 23.114896z" fill="#2A5082" /><path d="M694.064398 330.964596l81.826155-81.826154 229.091575 229.091576-81.826154 81.826154z" fill="#A3D4FF" /><path d="M923.083785 583.214381L670.927845 330.986253l104.962708-104.962707 252.228128 252.228128zM717.200951 330.986253l205.955023 205.955023 58.689601-58.689602-206.027211-205.955023z" fill="#2A5082" /><path d="M764.239259 342.579796l23.129334-23.122115 32.716024 32.716024-23.122115 23.129333z" fill="#2A5082" /><path d="M23.147683 478.244455l229.091576-229.091575 81.826154 81.826154-229.091575 229.084357z" fill="#A3D4FF" /><path d="M104.966619 583.214381L0.003912 478.251674 252.23204 226.023546l104.962707 104.962707zM46.277017 478.251674l58.689602 58.689602 205.955023-205.955023-58.689602-58.689602z" fill="#2A5082" /><path d="M207.958568 352.173705l32.716024-32.723243 23.122115 23.129334-32.716024 32.716024z" fill="#2A5082" /><path d="M394.444236 1023.927811A517.378075 517.378075 0 0 1 3.324603 618.44258l32.124074-6.208248A484.6043 484.6043 0 0 0 401.663129 992.020303zM627.036975 1024l-7.218893-31.907508a480.994854 480.994854 0 0 0 362.677194-362.749383l31.907508 7.218893a513.552062 513.552062 0 0 1-387.365809 387.437998zM156.870461 190.506591l-23.894537-22.378568a516.728375 516.728375 0 0 1 755.745929 0l-23.966725 22.30638a483.665844 483.665844 0 0 0-707.884667 0z" fill="#BCC0C4" /><path d="M326.370073 851.179697a32.701586 32.701586 0 0 0 46.273106 0l34.722876-34.722876c13.715897-13.715897 10.178639-36.094466-5.775115-52.04822s-38.404512-19.491012-52.04822-5.775115c13.715897-13.715897 10.178639-36.094466-5.775114-52.04822s-38.404512-19.491012-52.04822-5.775114c13.715897-13.715897 10.178639-36.094466-5.775115-52.04822s-38.404512-19.491012-52.04822-5.775115c13.715897-13.715897 10.178639-36.094466-5.775114-52.04822s-38.404512-19.491012-52.04822-5.775114l-34.722876 34.722876a32.701586 32.701586 0 0 0 0 46.273105z" fill="#E9EAEB" /><path d="M349.54272 877.167712a48.727529 48.727529 0 0 1-34.722876-14.437786L129.655234 677.637504a49.160663 49.160663 0 0 1 0-69.445752l34.722876-34.722876c19.779767-19.779767 52.120409-17.325344 75.220867 5.775114a62.371237 62.371237 0 0 1 18.985689 38.837646 66.486006 66.486006 0 0 1 57.751146 57.751145 66.486006 66.486006 0 0 1 57.751145 57.751146h2.454424a63.598449 63.598449 0 0 1 36.094466 18.696933c23.100458 23.100458 25.554882 55.4411 5.775114 75.220867l-34.722876 34.722876a48.799718 48.799718 0 0 1-34.145365 14.943109zM196.863129 592.959887a12.777441 12.777441 0 0 0-9.312372 3.681636l-34.722876 34.722876a16.386888 16.386888 0 0 0 0 23.172647l185.16461 185.092422a16.747832 16.747832 0 0 0 23.172647 0l34.722877-34.722877c7.218893-7.218893 2.598802-20.501657-5.775115-28.875572a31.257808 31.257808 0 0 0-17.325344-9.384561 13.210575 13.210575 0 0 0-11.550229 3.537257l-23.172647-23.172647c7.218893-7.218893 2.67099-20.501657-5.775114-28.875573s-21.65668-13.282763-28.875573-5.775114l-23.172647-23.172647c7.218893-7.218893 2.598802-20.501657-5.775115-28.875573s-21.65668-13.282763-28.875573-5.775115l-23.172647-23.172647a13.210575 13.210575 0 0 0 3.537258-11.550229 31.257808 31.257808 0 0 0-9.312372-17.325344 30.030596 30.030596 0 0 0-19.779768-9.528939zM371.632534 244.352316l23.122114-23.122115 32.723243 32.716024-23.122115 23.122115zM449.408889 188.875122l31.019584-10.337455 16.365231 49.102911-31.026803 10.337455zM531.206168 227.611703l16.358012-49.110131 31.026803 10.337455-16.365231 49.102912zM600.666358 253.9751l32.716024-32.723242 23.122115 23.122115-32.716024 32.723242z" fill="#2A5082" /></svg>