<?xml version="1.0" standalone="no"?><!DOCTYPE svg PUBLIC "-//W3C//DTD SVG 1.1//EN" "http://www.w3.org/Graphics/SVG/1.1/DTD/svg11.dtd"><svg t="1557919060888" class="icon" style="" viewBox="0 0 1024 1024" version="1.1" xmlns="http://www.w3.org/2000/svg" p-id="1507" xmlns:xlink="http://www.w3.org/1999/xlink" width="35" height="35"><defs><style type="text/css"></style></defs><path d="M774.85871 129.541355l-16.60826 0c-13.576203-38.134529-50.151213-65.520249-93.037976-65.520249L358.200148 64.021106c-42.886763 0-79.461773 27.386744-93.037976 65.520249l-16.60826 0c-66.505693 0-120.611985 53.896514-120.611985 120.120798l0 589.686337c0 66.224284 54.106292 120.120798 120.611985 120.120798l526.304797 0c66.505693 0 120.611985-53.896514 120.611985-120.120798L895.470695 249.662153C895.469672 183.437869 841.364403 129.541355 774.85871 129.541355zM358.200148 129.541355l307.011302 0c18.139126 0 32.894178 14.6957 32.894178 32.760125 0 18.065448-14.755052 32.760125-32.894178 32.760125L358.200148 195.061604c-18.139126 0-32.894178-14.6957-32.894178-32.760125C325.306994 144.236032 340.062046 129.541355 358.200148 129.541355zM829.682339 839.34849c0 30.115901-24.595164 54.600549-54.82363 54.600549L248.553912 893.949039c-30.227442 0-54.82363-24.484647-54.82363-54.600549L193.730283 249.662153c0-30.115901 24.595164-54.600549 54.82363-54.600549l16.60826 0c13.576203 38.134529 50.151213 65.520249 93.037976 65.520249l307.011302 0c42.886763 0 79.461773-27.386744 93.037976-65.520249l16.60826 0c30.227442 0 54.82363 24.484647 54.82363 54.600549L829.681316 839.34849zM314.342268 358.863251c-24.222681 0-43.858904 19.556405-43.858904 43.680848 0 24.124444 19.636223 43.680848 43.858904 43.680848s43.858904-19.556405 43.858904-43.680848C358.200148 378.419655 338.563926 358.863251 314.342268 358.863251zM314.342268 533.585621c-24.222681 0-43.858904 19.556405-43.858904 43.680848 0 24.124444 19.636223 43.680848 43.858904 43.680848s43.858904-19.556405 43.858904-43.680848C358.200148 553.142026 338.563926 533.585621 314.342268 533.585621zM709.070354 369.783974 445.917956 369.783974c-18.170848 0-32.894178 14.674211-32.894178 32.760125s14.72333 32.760125 32.894178 32.760125l263.152399 0c18.170848 0 32.894178-14.674211 32.894178-32.760125S727.241202 369.783974 709.070354 369.783974zM709.070354 544.505321 445.917956 544.505321c-18.170848 0-32.894178 14.674211-32.894178 32.760125 0 18.085914 14.72333 32.760125 32.894178 32.760125l263.152399 0c18.170848 0 32.894178-14.674211 32.894178-32.760125C741.964532 559.179532 727.241202 544.505321 709.070354 544.505321zM314.342268 708.306968c-24.222681 0-43.858904 19.556405-43.858904 43.680848 0 24.124444 19.636223 43.680848 43.858904 43.680848s43.858904-19.556405 43.858904-43.680848C358.200148 727.863373 338.563926 708.306968 314.342268 708.306968zM709.070354 719.227692 445.917956 719.227692c-18.170848 0-32.894178 14.674211-32.894178 32.760125s14.72333 32.760125 32.894178 32.760125l263.152399 0c18.170848 0 32.894178-14.674211 32.894178-32.760125S727.241202 719.227692 709.070354 719.227692z" p-id="1508" fill="#f2331b"></path></svg>