<?xml version="1.0" standalone="no"?><!DOCTYPE svg PUBLIC "-//W3C//DTD SVG 1.1//EN" "http://www.w3.org/Graphics/SVG/1.1/DTD/svg11.dtd"><svg t="1557126473741" class="icon" style="" viewBox="0 0 1024 1024" version="1.1" xmlns="http://www.w3.org/2000/svg" p-id="2507" xmlns:xlink="http://www.w3.org/1999/xlink" width="45" height="45"><defs><style type="text/css"></style></defs><path d="M129 102h321c16.569 0 30 13.431 30 30v322c0 16.569-13.431 30-30 30H129c-16.569 0-30-13.431-30-30V132C99 115.431 112.431 102 129 102z m70.692 70.877c-16.569 0-30 13.432-30 30v180.246c0 16.568 13.431 30 30 30h179.616c16.569 0 30-13.432 30-30V202.877c0-16.568-13.431-30-30-30H199.692z m56.92 57.07h65.776c16.568 0 30 13.431 30 30v66.106c0 16.569-13.432 30-30 30h-65.776c-16.568 0-30-13.431-30-30v-66.106c0-16.569 13.432-30 30-30zM129 540h321c16.569 0 30 13.431 30 30v322c0 16.569-13.431 30-30 30H129c-16.569 0-30-13.431-30-30V570c0-16.569 13.431-30 30-30z m70.692 70.877c-16.569 0-30 13.432-30 30v180.246c0 16.568 13.431 30 30 30h179.616c16.569 0 30-13.432 30-30V640.877c0-16.568-13.431-30-30-30H199.692z m56.92 57.07h65.776c16.568 0 30 13.431 30 30v66.106c0 16.569-13.432 30-30 30h-65.776c-16.568 0-30-13.431-30-30v-66.106c0-16.569 13.432-30 30-30zM574 102h321c16.569 0 30 13.431 30 30v322c0 16.569-13.431 30-30 30H574c-16.569 0-30-13.431-30-30V132c0-16.569 13.431-30 30-30z m70.692 70.877c-16.569 0-30 13.432-30 30v180.246c0 16.568 13.431 30 30 30h179.616c16.569 0 30-13.432 30-30V202.877c0-16.568-13.431-30-30-30H644.692z m56.92 57.07h65.776c16.568 0 30 13.431 30 30v66.106c0 16.569-13.432 30-30 30h-65.776c-16.568 0-30-13.431-30-30v-66.106c0-16.569 13.432-30 30-30z" fill="#2F54EB" p-id="2508"></path><path d="M544 541m30 0l31 0q30 0 30 30l0 31q0 30-30 30l-31 0q-30 0-30-30l0-31q0-30 30-30Z" fill="#2F54EB" p-id="2509"></path><path d="M834 541m30 0l31 0q30 0 30 30l0 31q0 30-30 30l-31 0q-30 0-30-30l0-31q0-30 30-30Z" fill="#2F54EB" p-id="2510"></path><path d="M544 831m30 0l31 0q30 0 30 30l0 31q0 30-30 30l-31 0q-30 0-30-30l0-31q0-30 30-30Z" fill="#2F54EB" p-id="2511"></path><path d="M635 632m30 0l31 0q30 0 30 30l0 139q0 30-30 30l-31 0q-30 0-30-30l0-139q0-30 30-30Z" fill="#2F54EB" p-id="2512"></path><path d="M834 723m30 0l31 0q30 0 30 30l0 139q0 30-30 30l-31 0q-30 0-30-30l0-139q0-30 30-30Z" fill="#2F54EB" p-id="2513"></path><path d="M925 861v31c0 16.569-13.431 30-30 30H756c-16.569 0-30-13.431-30-30v-31c0-16.569 13.431-30 30-30h139c16.569 0 30 13.431 30 30z" fill="#2F54EB" p-id="2514"></path></svg>