<?xml version="1.0" standalone="no"?><!DOCTYPE svg PUBLIC "-//W3C//DTD SVG 1.1//EN" "http://www.w3.org/Graphics/SVG/1.1/DTD/svg11.dtd"><svg t="1557217554301" class="icon" style="" viewBox="0 0 1024 1024" version="1.1" xmlns="http://www.w3.org/2000/svg" p-id="1866" xmlns:xlink="http://www.w3.org/1999/xlink" width="45" height="45"><defs><style type="text/css"></style></defs><path d="M912.231201 877.743492c0-80.807807-65.193142-146.307619-145.566498-146.307619-35.752727 0-68.055404 13.493524-93.406873 34.986049l-288.449624-185.331503c11.091268-20.674736 17.965809-43.93062 17.965809-69.077641 0-22.872545-5.673413-44.262847-15.026879-63.532007l289.216302-187.759315c24.814794 19.678055 55.686341 31.868227 89.675709 31.868227 80.373356 0 145.566498-65.499813 145.566498-146.282063 0-80.807807-65.193142-146.307619-145.566498-146.307619-80.373356 0-145.540942 65.525369-145.540942 146.307619 0 19.933615 4.012279 38.972772 11.244603 56.274127L341.925379 391.209963l3.143378 4.830068c-24.482568-18.732486-54.68966-30.309316-87.835683-30.309316-80.373356 0-145.540942 65.474257-145.540942 146.282063s65.167586 146.282063 145.540942 146.282063c28.315955 0 54.459657-8.433452 76.795528-22.46365l296.831965 190.698246c-5.980084 15.946892-9.685692 33.120467-9.685692 51.1885 0 80.782251 65.167586 146.282063 145.540942 146.282063 80.373356 0 145.592054-65.499813 145.592054-146.282063l0 0L912.231201 877.743492zM726.209688 207.054032l-29.644863-46.128428-0.996681 0.664454c-1.047793-4.957848-1.661135-10.069031-1.661135-15.282438 0-40.429459 32.583793-73.141032 72.783249-73.141032s72.783249 32.737128 72.783249 73.141032c0 40.378347-32.583793 73.141032-72.783249 73.141032C751.688937 219.448651 737.786518 214.874142 726.209688 207.054032L726.209688 207.054032 726.209688 207.054032zM184.449824 512.012778c0-40.378347 32.583793-73.141032 72.757693-73.141032 40.199456 0 72.783249 32.737128 72.783249 73.141032 0 40.429459-32.583793 73.141032-72.783249 73.141032C217.033617 585.15381 184.449824 552.416681 184.449824 512.012778L184.449824 512.012778 184.449824 512.012778zM693.855899 877.743492c0-40.403903 32.583793-73.141032 72.783249-73.141032s72.783249 32.737128 72.783249 73.141032c0 40.378347-32.583793 73.141032-72.783249 73.141032C726.465247 950.884524 693.855899 918.12184 693.855899 877.743492L693.855899 877.743492 693.855899 877.743492z" p-id="1867" fill="#21cc64"></path></svg>