<?xml version="1.0" standalone="no"?><!DOCTYPE svg PUBLIC "-//W3C//DTD SVG 1.1//EN" "http://www.w3.org/Graphics/SVG/1.1/DTD/svg11.dtd"><svg t="1557235085983" class="icon" style="" viewBox="0 0 1024 1024" version="1.1" xmlns="http://www.w3.org/2000/svg" p-id="71058" xmlns:xlink="http://www.w3.org/1999/xlink" width="45" height="45"><defs><style type="text/css"></style></defs><path d="M307.2 563.2H153.6a153.6 153.6 0 0 0-153.6 153.6v153.6a153.6 153.6 0 0 0 153.6 153.6h153.6a153.6 153.6 0 0 0 153.6-153.6v-153.6a153.6 153.6 0 0 0-153.6-153.6z m51.2 307.2a51.2 51.2 0 0 1-51.2 51.2H153.6a51.2 51.2 0 0 1-51.2-51.2v-153.6a51.2 51.2 0 0 1 51.2-51.2h153.6a51.2 51.2 0 0 1 51.2 51.2zM870.4 0h-153.6a153.6 153.6 0 0 0-153.6 153.6v153.6a153.6 153.6 0 0 0 153.6 153.6h153.6a153.6 153.6 0 0 0 153.6-153.6V153.6a153.6 153.6 0 0 0-153.6-153.6z m51.2 307.2a51.2 51.2 0 0 1-51.2 51.2h-153.6a51.2 51.2 0 0 1-51.2-51.2V153.6a51.2 51.2 0 0 1 51.2-51.2h153.6a51.2 51.2 0 0 1 51.2 51.2zM870.4 563.2h-153.6a153.6 153.6 0 0 0-153.6 153.6v153.6a153.6 153.6 0 0 0 153.6 153.6h153.6a153.6 153.6 0 0 0 153.6-153.6v-153.6a153.6 153.6 0 0 0-153.6-153.6z m51.2 307.2a51.2 51.2 0 0 1-51.2 51.2h-153.6a51.2 51.2 0 0 1-51.2-51.2v-153.6a51.2 51.2 0 0 1 51.2-51.2h153.6a51.2 51.2 0 0 1 51.2 51.2zM307.2 0H153.6a153.6 153.6 0 0 0-153.6 153.6v153.6a153.6 153.6 0 0 0 153.6 153.6h153.6a153.6 153.6 0 0 0 153.6-153.6V153.6a153.6 153.6 0 0 0-153.6-153.6z m51.2 307.2a51.2 51.2 0 0 1-51.2 51.2H153.6a51.2 51.2 0 0 1-51.2-51.2V153.6a51.2 51.2 0 0 1 51.2-51.2h153.6a51.2 51.2 0 0 1 51.2 51.2z" fill="#8a8a8a" p-id="71059"></path></svg>