<?xml version="1.0" standalone="no"?><!DOCTYPE svg PUBLIC "-//W3C//DTD SVG 1.1//EN" "http://www.w3.org/Graphics/SVG/1.1/DTD/svg11.dtd"><svg t="1557314960258" class="icon" style="" viewBox="0 0 1024 1024" version="1.1" xmlns="http://www.w3.org/2000/svg" p-id="1717" xmlns:xlink="http://www.w3.org/1999/xlink" width="45" height="45"><defs><style type="text/css"></style></defs><path d="M916.166 919.024c0 22.392-18.17 40.056-40.582 40.564-33.866 0.768-41.739-41.071-41.739-41.071C814.62 761.365 683.265 639.11 522.054 633.98c-3.467 0.145-6.896 0.508-10.406 0.508-3.506 0-6.895-0.388-10.362-0.508-161.169 5.173-292.485 127.385-311.73 284.536 0 0-4.424 41.071-41.534 41.071-22.392 0-40.564-18.17-40.564-40.564 0 0 0.731-14.215 2.598-18.9 20.379-142.008 113.753-260.302 241.254-315.202-74.894-51.248-124.117-137.323-124.117-234.906 0-157.118 127.342-284.48 284.436-284.48 157.116 0 284.478 127.38 284.478 284.48 0 97.565-49.204 183.6-124.059 234.868 128.7 55.383 222.76 175.384 241.947 319.195 1.034 3.568 1.765 7.257 1.765 11.173l0.406 3.772zM714.782 350.113c0-112.231-90.942-203.188-203.192-203.188-112.212 0-203.192 90.957-203.192 203.188 0 112.217 90.98 203.211 203.192 203.211 112.25-0.02 203.192-91.02 203.192-203.211z m0 0" p-id="1718" fill="#8a8a8a"></path></svg>